<?xml version="1.0" standalone="no"?>
<!DOCTYPE svg PUBLIC "-//W3C//DTD SVG 20010904//EN"
 "http://www.w3.org/TR/2001/REC-SVG-20010904/DTD/svg10.dtd">
<svg version="1.0" xmlns="http://www.w3.org/2000/svg"
 width="512.000000pt" height="512.000000pt" viewBox="0 0 512.000000 512.000000"
 preserveAspectRatio="xMidYMid meet">

<g transform="translate(0.000000,512.000000) scale(0.100000,-0.100000)"
fill="#000000" stroke="none">
<path d="M3135 4946 c-41 -18 -83 -69 -91 -110 -3 -19 -4 -84 -2 -144 2 -93 6
-115 24 -138 39 -53 71 -69 134 -69 63 0 95 16 134 69 19 25 21 42 21 166 0
151 -5 167 -67 213 -33 25 -113 32 -153 13z"/>
<path d="M2110 4518 c-61 -31 -95 -97 -85 -164 6 -40 17 -57 88 -131 94 -98
118 -113 184 -113 90 0 153 63 153 153 0 65 -15 90 -112 183 -105 101 -145
114 -228 72z"/>
<path d="M4171 4533 c-27 -5 -186 -155 -207 -195 -21 -40 -18 -117 6 -156 28
-46 76 -72 133 -72 66 0 90 15 184 113 71 74 82 91 88 131 10 67 -24 133 -85
164 -43 21 -68 24 -119 15z"/>
<path d="M3055 4146 c-92 -18 -207 -63 -281 -111 -127 -83 -264 -248 -311
-375 -9 -25 -18 -46 -19 -48 -1 -2 -38 8 -81 21 -273 87 -564 47 -806 -109
-92 -60 -221 -189 -281 -281 -85 -133 -139 -290 -152 -443 l-7 -77 -66 -7
c-246 -23 -465 -155 -602 -364 -88 -134 -124 -258 -124 -432 0 -129 10 -183
55 -302 66 -177 261 -372 438 -438 155 -58 67 -54 1311 -58 1256 -3 1234 -4
1400 57 134 49 234 114 346 226 177 177 266 371 281 615 19 281 -90 558 -295
753 l-61 58 39 52 c200 266 213 633 32 909 -114 174 -273 288 -481 344 -77 22
-250 26 -335 10z m260 -321 c249 -65 410 -322 354 -565 -16 -71 -67 -165 -119
-219 l-48 -50 -78 21 c-80 22 -246 29 -377 18 l-57 -5 -33 75 c-42 96 -88 167
-166 258 -60 68 -63 75 -56 110 12 64 64 160 120 220 116 126 296 179 460 137z
m-1106 -480 c272 -57 457 -265 506 -567 7 -43 44 -92 86 -113 42 -22 88 -18
191 16 315 106 640 -29 784 -326 91 -188 82 -414 -23 -595 -75 -129 -217 -243
-363 -293 l-65 -22 -1125 -3 c-788 -2 -1140 1 -1177 8 -86 18 -183 73 -245
138 -183 191 -183 472 -1 663 117 123 286 173 448 134 81 -19 109 -19 154 5
75 38 96 105 72 229 -51 260 94 546 339 669 137 69 275 88 419 57z"/>
<path d="M4415 3506 c-97 -43 -124 -171 -54 -251 42 -47 84 -57 221 -53 99 2
121 6 144 24 53 39 69 71 69 134 0 63 -16 95 -69 134 -24 18 -44 21 -154 24
-91 1 -136 -2 -157 -12z"/>
<path d="M1055 786 c-41 -18 -83 -69 -90 -109 -4 -18 -5 -118 -3 -224 3 -210
5 -218 72 -267 39 -29 133 -29 172 0 68 51 69 53 69 294 0 205 -1 220 -21 246
-11 15 -32 37 -46 47 -33 25 -113 32 -153 13z"/>
<path d="M2175 786 c-41 -18 -83 -69 -90 -109 -4 -18 -5 -118 -3 -224 3 -210
5 -218 72 -267 39 -29 133 -29 172 0 68 51 69 53 69 294 0 205 -1 220 -21 246
-11 15 -32 37 -46 47 -33 25 -113 32 -153 13z"/>
<path d="M3295 786 c-41 -18 -83 -69 -90 -109 -4 -18 -5 -118 -3 -224 3 -210
5 -218 72 -267 39 -29 133 -29 172 0 68 51 69 53 69 294 0 205 -1 220 -21 246
-11 15 -32 37 -46 47 -33 25 -113 32 -153 13z"/>
</g>
</svg>
